<svg xmlns="http://www.w3.org/2000/svg" width="1260" height="781" viewBox="0 0 1260 781">
<defs>
  <linearGradient id="metal" x1="0" y1="0" x2="0" y2="1">
    <stop offset="0" stop-color="#45464F"/>
    <stop offset="0.25" stop-color="#3B3C44"/>
    <stop offset="0.6" stop-color="#36363E"/>
    <stop offset="1" stop-color="#303138"/>
  </linearGradient>
  <linearGradient id="wood" x1="0" y1="0" x2="1" y2="0">
    <stop offset="0" stop-color="#4A1D08"/>
    <stop offset="0.25" stop-color="#7C3615"/>
    <stop offset="0.55" stop-color="#8A431C"/>
    <stop offset="0.85" stop-color="#6B2C0F"/>
    <stop offset="1" stop-color="#38160A"/>
  </linearGradient>
  <linearGradient id="bluebar" x1="0" y1="0" x2="0" y2="1">
    <stop offset="0" stop-color="#3050B8"/>
    <stop offset="0.5" stop-color="#24388A"/>
    <stop offset="1" stop-color="#1A2A66"/>
  </linearGradient>
</defs>
<rect x="0" y="0" width="1260" height="781" fill="url(#metal)"/>
<rect x="0" y="0" width="28" height="781" fill="url(#wood)"/><path d="M17.3 20 q -1.1 33 0 66" stroke="#2E1206" stroke-opacity="0.33" stroke-width="1.2" fill="none"/><path d="M23.4 68 q -1.9 42 0 85" stroke="#2E1206" stroke-opacity="0.20" stroke-width="1.1" fill="none"/><path d="M2.6 155 q 0.2 57 0 114" stroke="#2E1206" stroke-opacity="0.21" stroke-width="1.1" fill="none"/><path d="M21.4 5 q 0.8 67 0 135" stroke="#2E1206" stroke-opacity="0.24" stroke-width="0.7" fill="none"/><path d="M25.0 263 q -1.6 21 0 42" stroke="#2E1206" stroke-opacity="0.36" stroke-width="1.2" fill="none"/><path d="M21.4 570 q 1.9 50 0 100" stroke="#2E1206" stroke-opacity="0.24" stroke-width="1.1" fill="none"/><path d="M21.9 483 q 0.3 71 0 142" stroke="#2E1206" stroke-opacity="0.33" stroke-width="0.6" fill="none"/><path d="M7.5 226 q -1.1 20 0 40" stroke="#2E1206" stroke-opacity="0.18" stroke-width="0.8" fill="none"/><path d="M17.3 285 q -1.2 39 0 78" stroke="#2E1206" stroke-opacity="0.22" stroke-width="1.5" fill="none"/><path d="M17.6 476 q 0.9 26 0 52" stroke="#2E1206" stroke-opacity="0.19" stroke-width="0.9" fill="none"/><path d="M25.7 500 q 0.7 51 0 102" stroke="#2E1206" stroke-opacity="0.36" stroke-width="1.4" fill="none"/><path d="M7.5 25 q -0.9 36 0 71" stroke="#2E1206" stroke-opacity="0.20" stroke-width="1.5" fill="none"/><path d="M23.0 246 q -0.4 58 0 115" stroke="#2E1206" stroke-opacity="0.38" stroke-width="1.0" fill="none"/><path d="M8.4 193 q -0.9 51 0 103" stroke="#2E1206" stroke-opacity="0.30" stroke-width="1.5" fill="none"/><path d="M11.6 171 q 0.0 80 0 160" stroke="#2E1206" stroke-opacity="0.17" stroke-width="0.6" fill="none"/><path d="M4.6 490 q -0.3 66 0 133" stroke="#2E1206" stroke-opacity="0.17" stroke-width="0.9" fill="none"/><path d="M25.9 413 q 1.4 78 0 156" stroke="#2E1206" stroke-opacity="0.15" stroke-width="1.3" fill="none"/><path d="M18.4 419 q 0.6 32 0 65" stroke="#2E1206" stroke-opacity="0.18" stroke-width="1.0" fill="none"/><path d="M12.9 745 q -0.9 72 0 144" stroke="#2E1206" stroke-opacity="0.28" stroke-width="0.7" fill="none"/><path d="M23.9 680 q 0.6 34 0 69" stroke="#2E1206" stroke-opacity="0.30" stroke-width="0.7" fill="none"/><path d="M20.3 421 q 0.1 66 0 131" stroke="#2E1206" stroke-opacity="0.15" stroke-width="0.9" fill="none"/><path d="M2.5 726 q 1.3 72 0 144" stroke="#2E1206" stroke-opacity="0.23" stroke-width="0.6" fill="none"/><path d="M23.1 740 q -0.1 21 0 41" stroke="#2E1206" stroke-opacity="0.17" stroke-width="1.3" fill="none"/><path d="M20.4 100 q 0.2 46 0 92" stroke="#2E1206" stroke-opacity="0.22" stroke-width="1.5" fill="none"/><path d="M12.2 165 q 0.9 50 0 100" stroke="#2E1206" stroke-opacity="0.20" stroke-width="0.8" fill="none"/><path d="M25.9 508 q 0.1 43 0 87" stroke="#2E1206" stroke-opacity="0.18" stroke-width="0.7" fill="none"/><path d="M10.1 459 q -1.1 30 0 60" stroke="#2E1206" stroke-opacity="0.17" stroke-width="1.2" fill="none"/><path d="M7.5 707 q -1.7 71 0 142" stroke="#2E1206" stroke-opacity="0.21" stroke-width="1.2" fill="none"/><path d="M7.1 103 q 0.3 76 0 152" stroke="#2E1206" stroke-opacity="0.27" stroke-width="1.4" fill="none"/><path d="M21.4 149 q -0.3 21 0 43" stroke="#2E1206" stroke-opacity="0.26" stroke-width="1.0" fill="none"/><path d="M19.5 526 q -1.6 79 0 158" stroke="#2E1206" stroke-opacity="0.25" stroke-width="0.9" fill="none"/><path d="M22.7 194 q -0.2 27 0 55" stroke="#2E1206" stroke-opacity="0.26" stroke-width="0.8" fill="none"/><path d="M8.0 721 q 1.4 44 0 88" stroke="#2E1206" stroke-opacity="0.29" stroke-width="0.6" fill="none"/><path d="M26.0 653 q 1.7 78 0 156" stroke="#2E1206" stroke-opacity="0.36" stroke-width="0.7" fill="none"/><path d="M13.7 167 q -1.8 41 0 82" stroke="#2E1206" stroke-opacity="0.24" stroke-width="1.6" fill="none"/><path d="M8.4 612 q -0.3 45 0 89" stroke="#2E1206" stroke-opacity="0.39" stroke-width="1.6" fill="none"/><path d="M15.3 561 q -0.8 25 0 50" stroke="#2E1206" stroke-opacity="0.39" stroke-width="1.1" fill="none"/><path d="M15.0 584 q 0.3 19 0 37" stroke="#2E1206" stroke-opacity="0.28" stroke-width="1.4" fill="none"/><path d="M5.8 750 q -1.3 20 0 40" stroke="#2E1206" stroke-opacity="0.30" stroke-width="1.2" fill="none"/><path d="M7.6 94 q -1.0 73 0 146" stroke="#2E1206" stroke-opacity="0.30" stroke-width="1.2" fill="none"/><path d="M12.1 456 q 1.7 49 0 98" stroke="#2E1206" stroke-opacity="0.20" stroke-width="1.3" fill="none"/><path d="M7.7 309 q -0.8 59 0 117" stroke="#2E1206" stroke-opacity="0.23" stroke-width="1.3" fill="none"/><path d="M3.7 358 q 2.0 80 0 160" stroke="#2E1206" stroke-opacity="0.17" stroke-width="0.7" fill="none"/><path d="M8.4 729 q 1.5 72 0 145" stroke="#2E1206" stroke-opacity="0.24" stroke-width="0.7" fill="none"/><path d="M22.0 549 q 1.9 55 0 110" stroke="#2E1206" stroke-opacity="0.31" stroke-width="0.5" fill="none"/><path d="M21.6 234 q 1.8 58 0 116" stroke="#2E1206" stroke-opacity="0.18" stroke-width="0.6" fill="none"/><path d="M4.6 432 q 0.4 33 0 65" stroke="#2E1206" stroke-opacity="0.33" stroke-width="0.7" fill="none"/><path d="M17.2 206 q 1.6 47 0 94" stroke="#2E1206" stroke-opacity="0.36" stroke-width="0.6" fill="none"/><path d="M12.2 216 q 1.1 15 0 30" stroke="#2E1206" stroke-opacity="0.31" stroke-width="0.8" fill="none"/><path d="M19.8 431 q -2.0 43 0 86" stroke="#2E1206" stroke-opacity="0.17" stroke-width="1.5" fill="none"/><path d="M23.7 426 q 0.3 69 0 138" stroke="#2E1206" stroke-opacity="0.19" stroke-width="0.6" fill="none"/><path d="M9.4 702 q 1.4 67 0 133" stroke="#2E1206" stroke-opacity="0.37" stroke-width="0.7" fill="none"/><path d="M8.0 80 q 1.5 66 0 131" stroke="#2E1206" stroke-opacity="0.25" stroke-width="1.2" fill="none"/><path d="M5.7 726 q 1.9 71 0 142" stroke="#2E1206" stroke-opacity="0.35" stroke-width="1.5" fill="none"/><path d="M2.6 575 q 1.7 37 0 73" stroke="#2E1206" stroke-opacity="0.35" stroke-width="1.5" fill="none"/><path d="M21.5 208 q -1.6 66 0 132" stroke="#2E1206" stroke-opacity="0.37" stroke-width="1.4" fill="none"/><path d="M7.3 638 q -0.8 45 0 90" stroke="#2E1206" stroke-opacity="0.35" stroke-width="0.8" fill="none"/><path d="M2.6 151 q 1.5 36 0 73" stroke="#2E1206" stroke-opacity="0.39" stroke-width="0.8" fill="none"/><path d="M17.4 312 q 0.1 79 0 158" stroke="#2E1206" stroke-opacity="0.38" stroke-width="0.6" fill="none"/><path d="M25.3 139 q -0.9 78 0 155" stroke="#2E1206" stroke-opacity="0.18" stroke-width="1.0" fill="none"/><path d="M19.5 245 q 0.0 54 0 109" stroke="#2E1206" stroke-opacity="0.25" stroke-width="1.1" fill="none"/><path d="M8.1 554 q 1.7 15 0 30" stroke="#2E1206" stroke-opacity="0.28" stroke-width="1.3" fill="none"/><path d="M19.8 524 q -1.7 39 0 77" stroke="#2E1206" stroke-opacity="0.32" stroke-width="0.9" fill="none"/><path d="M9.5 662 q -0.8 62 0 124" stroke="#2E1206" stroke-opacity="0.23" stroke-width="0.9" fill="none"/><path d="M11.7 231 q -0.3 23 0 47" stroke="#2E1206" stroke-opacity="0.39" stroke-width="1.2" fill="none"/><path d="M23.7 481 q 0.2 35 0 69" stroke="#2E1206" stroke-opacity="0.15" stroke-width="0.8" fill="none"/><path d="M12.3 453 q -0.1 58 0 115" stroke="#2E1206" stroke-opacity="0.26" stroke-width="0.7" fill="none"/><path d="M13.4 704 q -1.3 67 0 133" stroke="#2E1206" stroke-opacity="0.17" stroke-width="1.1" fill="none"/><path d="M17.2 262 q 1.0 68 0 136" stroke="#2E1206" stroke-opacity="0.32" stroke-width="0.7" fill="none"/><path d="M6.8 19 q -0.1 31 0 62" stroke="#2E1206" stroke-opacity="0.36" stroke-width="0.6" fill="none"/><path d="M11.9 492 q 0.8 28 0 55" stroke="#2E1206" stroke-opacity="0.27" stroke-width="0.8" fill="none"/><path d="M17.7 4 q 1.1 64 0 128" stroke="#2E1206" stroke-opacity="0.18" stroke-width="1.0" fill="none"/><path d="M6.2 748 q -1.8 49 0 97" stroke="#2E1206" stroke-opacity="0.21" stroke-width="1.4" fill="none"/><path d="M13.0 626 q 2.0 58 0 117" stroke="#2E1206" stroke-opacity="0.30" stroke-width="1.5" fill="none"/><path d="M23.4 478 q 0.0 62 0 124" stroke="#2E1206" stroke-opacity="0.36" stroke-width="1.1" fill="none"/><path d="M23.5 581 q -1.0 46 0 92" stroke="#2E1206" stroke-opacity="0.21" stroke-width="1.2" fill="none"/><path d="M20.4 407 q -0.9 56 0 111" stroke="#2E1206" stroke-opacity="0.17" stroke-width="0.8" fill="none"/><path d="M8.5 250 q -1.4 50 0 100" stroke="#2E1206" stroke-opacity="0.21" stroke-width="1.3" fill="none"/><path d="M19.0 50 q 0.2 41 0 83" stroke="#2E1206" stroke-opacity="0.25" stroke-width="0.7" fill="none"/><path d="M12.1 707 q 0.8 53 0 106" stroke="#2E1206" stroke-opacity="0.36" stroke-width="1.3" fill="none"/><path d="M11.1 5 q 1.0 38 0 76" stroke="#2E1206" stroke-opacity="0.36" stroke-width="1.5" fill="none"/><path d="M12.1 584 q 0.4 50 0 101" stroke="#2E1206" stroke-opacity="0.21" stroke-width="0.7" fill="none"/><path d="M12.5 23 q 0.7 37 0 74" stroke="#2E1206" stroke-opacity="0.25" stroke-width="0.7" fill="none"/><path d="M13.2 100 q -1.9 55 0 111" stroke="#2E1206" stroke-opacity="0.25" stroke-width="1.1" fill="none"/><path d="M2.7 502 q -0.2 24 0 48" stroke="#2E1206" stroke-opacity="0.16" stroke-width="0.9" fill="none"/><path d="M7.1 255 q -0.5 64 0 129" stroke="#2E1206" stroke-opacity="0.34" stroke-width="1.4" fill="none"/><path d="M8.1 64 q 0.2 16 0 33" stroke="#2E1206" stroke-opacity="0.40" stroke-width="0.9" fill="none"/><path d="M17.6 610 q 1.0 57 0 115" stroke="#2E1206" stroke-opacity="0.39" stroke-width="0.7" fill="none"/><path d="M2.5 119 q 0.7 23 0 46" stroke="#2E1206" stroke-opacity="0.29" stroke-width="0.7" fill="none"/><path d="M18.8 599 q 0.4 26 0 52" stroke="#2E1206" stroke-opacity="0.34" stroke-width="0.6" fill="none"/><rect x="0" y="0" width="2" height="781" fill="#000000" fill-opacity="0.45"/><rect x="26" y="0" width="2" height="781" fill="#000000" fill-opacity="0.45"/>
<rect x="1232" y="0" width="28" height="781" fill="url(#wood)"/><path d="M1253.7 753 q -1.9 22 0 44" stroke="#2E1206" stroke-opacity="0.23" stroke-width="1.2" fill="none"/><path d="M1257.0 310 q -1.7 61 0 123" stroke="#2E1206" stroke-opacity="0.32" stroke-width="1.2" fill="none"/><path d="M1236.4 603 q 0.4 70 0 141" stroke="#2E1206" stroke-opacity="0.18" stroke-width="1.6" fill="none"/><path d="M1252.8 271 q -0.5 43 0 86" stroke="#2E1206" stroke-opacity="0.28" stroke-width="0.9" fill="none"/><path d="M1254.4 642 q 1.8 22 0 44" stroke="#2E1206" stroke-opacity="0.31" stroke-width="1.4" fill="none"/><path d="M1251.0 340 q 1.9 63 0 125" stroke="#2E1206" stroke-opacity="0.22" stroke-width="1.4" fill="none"/><path d="M1246.9 378 q 0.9 43 0 87" stroke="#2E1206" stroke-opacity="0.22" stroke-width="1.4" fill="none"/><path d="M1253.9 68 q -1.0 72 0 145" stroke="#2E1206" stroke-opacity="0.27" stroke-width="1.2" fill="none"/><path d="M1243.1 22 q -1.3 70 0 141" stroke="#2E1206" stroke-opacity="0.20" stroke-width="1.4" fill="none"/><path d="M1242.2 688 q -0.9 61 0 121" stroke="#2E1206" stroke-opacity="0.15" stroke-width="1.5" fill="none"/><path d="M1236.1 562 q 1.0 47 0 94" stroke="#2E1206" stroke-opacity="0.32" stroke-width="1.2" fill="none"/><path d="M1245.8 619 q -1.1 21 0 42" stroke="#2E1206" stroke-opacity="0.32" stroke-width="0.8" fill="none"/><path d="M1248.0 370 q -0.3 50 0 99" stroke="#2E1206" stroke-opacity="0.34" stroke-width="0.9" fill="none"/><path d="M1250.9 212 q -1.5 31 0 63" stroke="#2E1206" stroke-opacity="0.20" stroke-width="0.6" fill="none"/><path d="M1246.9 595 q -1.1 27 0 54" stroke="#2E1206" stroke-opacity="0.27" stroke-width="1.3" fill="none"/><path d="M1257.4 410 q -1.6 33 0 67" stroke="#2E1206" stroke-opacity="0.20" stroke-width="0.8" fill="none"/><path d="M1238.3 11 q -0.9 50 0 99" stroke="#2E1206" stroke-opacity="0.39" stroke-width="1.1" fill="none"/><path d="M1250.7 99 q -0.0 71 0 143" stroke="#2E1206" stroke-opacity="0.37" stroke-width="1.1" fill="none"/><path d="M1245.3 344 q -1.8 27 0 54" stroke="#2E1206" stroke-opacity="0.39" stroke-width="1.0" fill="none"/><path d="M1253.7 313 q 0.5 20 0 40" stroke="#2E1206" stroke-opacity="0.16" stroke-width="0.7" fill="none"/><path d="M1247.5 237 q -1.5 80 0 159" stroke="#2E1206" stroke-opacity="0.34" stroke-width="1.2" fill="none"/><path d="M1253.0 176 q -0.2 49 0 98" stroke="#2E1206" stroke-opacity="0.26" stroke-width="1.4" fill="none"/><path d="M1257.8 239 q 0.4 55 0 111" stroke="#2E1206" stroke-opacity="0.34" stroke-width="1.5" fill="none"/><path d="M1239.0 165 q -1.4 58 0 116" stroke="#2E1206" stroke-opacity="0.19" stroke-width="0.6" fill="none"/><path d="M1234.1 352 q -0.8 54 0 107" stroke="#2E1206" stroke-opacity="0.21" stroke-width="1.3" fill="none"/><path d="M1250.9 355 q 1.7 60 0 119" stroke="#2E1206" stroke-opacity="0.35" stroke-width="1.2" fill="none"/><path d="M1249.9 729 q 0.2 43 0 85" stroke="#2E1206" stroke-opacity="0.31" stroke-width="1.5" fill="none"/><path d="M1253.8 56 q -0.8 26 0 52" stroke="#2E1206" stroke-opacity="0.34" stroke-width="1.1" fill="none"/><path d="M1240.9 97 q 0.8 60 0 120" stroke="#2E1206" stroke-opacity="0.39" stroke-width="1.1" fill="none"/><path d="M1245.9 63 q -0.3 18 0 35" stroke="#2E1206" stroke-opacity="0.23" stroke-width="0.8" fill="none"/><path d="M1236.2 751 q 0.3 69 0 139" stroke="#2E1206" stroke-opacity="0.39" stroke-width="1.6" fill="none"/><path d="M1250.1 210 q 1.0 18 0 35" stroke="#2E1206" stroke-opacity="0.27" stroke-width="1.2" fill="none"/><path d="M1256.0 142 q 0.5 53 0 106" stroke="#2E1206" stroke-opacity="0.27" stroke-width="0.6" fill="none"/><path d="M1242.4 260 q 1.4 59 0 117" stroke="#2E1206" stroke-opacity="0.23" stroke-width="1.3" fill="none"/><path d="M1240.9 738 q 0.2 68 0 136" stroke="#2E1206" stroke-opacity="0.26" stroke-width="0.8" fill="none"/><path d="M1241.8 758 q 0.1 41 0 83" stroke="#2E1206" stroke-opacity="0.40" stroke-width="1.2" fill="none"/><path d="M1247.0 323 q -0.6 27 0 54" stroke="#2E1206" stroke-opacity="0.34" stroke-width="1.2" fill="none"/><path d="M1252.2 159 q 1.7 51 0 101" stroke="#2E1206" stroke-opacity="0.26" stroke-width="1.3" fill="none"/><path d="M1236.9 760 q -1.0 55 0 109" stroke="#2E1206" stroke-opacity="0.19" stroke-width="1.1" fill="none"/><path d="M1247.3 73 q 1.7 79 0 159" stroke="#2E1206" stroke-opacity="0.27" stroke-width="0.6" fill="none"/><path d="M1254.0 389 q 0.0 62 0 123" stroke="#2E1206" stroke-opacity="0.22" stroke-width="1.4" fill="none"/><path d="M1257.5 190 q -0.5 51 0 102" stroke="#2E1206" stroke-opacity="0.38" stroke-width="1.1" fill="none"/><path d="M1255.1 675 q 1.2 33 0 66" stroke="#2E1206" stroke-opacity="0.25" stroke-width="1.5" fill="none"/><path d="M1246.2 641 q -0.8 33 0 67" stroke="#2E1206" stroke-opacity="0.30" stroke-width="1.6" fill="none"/><path d="M1245.8 116 q -0.6 50 0 100" stroke="#2E1206" stroke-opacity="0.29" stroke-width="1.1" fill="none"/><path d="M1244.9 251 q 0.8 27 0 55" stroke="#2E1206" stroke-opacity="0.29" stroke-width="0.8" fill="none"/><path d="M1252.6 34 q 0.8 63 0 127" stroke="#2E1206" stroke-opacity="0.35" stroke-width="0.9" fill="none"/><path d="M1249.9 641 q -0.0 79 0 158" stroke="#2E1206" stroke-opacity="0.16" stroke-width="1.1" fill="none"/><path d="M1248.2 679 q -0.2 72 0 144" stroke="#2E1206" stroke-opacity="0.28" stroke-width="1.0" fill="none"/><path d="M1251.3 320 q -1.4 58 0 115" stroke="#2E1206" stroke-opacity="0.27" stroke-width="1.6" fill="none"/><path d="M1242.1 541 q 1.4 57 0 114" stroke="#2E1206" stroke-opacity="0.36" stroke-width="1.4" fill="none"/><path d="M1243.1 247 q 1.0 62 0 123" stroke="#2E1206" stroke-opacity="0.37" stroke-width="0.5" fill="none"/><path d="M1235.6 493 q 2.0 75 0 150" stroke="#2E1206" stroke-opacity="0.34" stroke-width="1.0" fill="none"/><path d="M1236.4 495 q -0.2 72 0 143" stroke="#2E1206" stroke-opacity="0.32" stroke-width="1.5" fill="none"/><path d="M1235.1 622 q -0.5 34 0 68" stroke="#2E1206" stroke-opacity="0.19" stroke-width="1.1" fill="none"/><path d="M1247.6 619 q -1.7 26 0 52" stroke="#2E1206" stroke-opacity="0.37" stroke-width="1.2" fill="none"/><path d="M1239.8 713 q -0.2 24 0 49" stroke="#2E1206" stroke-opacity="0.21" stroke-width="0.8" fill="none"/><path d="M1234.2 628 q 0.7 74 0 147" stroke="#2E1206" stroke-opacity="0.19" stroke-width="1.0" fill="none"/><path d="M1242.3 459 q -0.3 57 0 113" stroke="#2E1206" stroke-opacity="0.21" stroke-width="1.4" fill="none"/><path d="M1238.8 300 q -1.1 46 0 93" stroke="#2E1206" stroke-opacity="0.29" stroke-width="1.1" fill="none"/><path d="M1257.8 231 q 0.6 79 0 157" stroke="#2E1206" stroke-opacity="0.22" stroke-width="1.1" fill="none"/><path d="M1250.5 582 q 0.4 18 0 36" stroke="#2E1206" stroke-opacity="0.27" stroke-width="1.5" fill="none"/><path d="M1240.9 624 q -0.6 54 0 109" stroke="#2E1206" stroke-opacity="0.31" stroke-width="1.2" fill="none"/><path d="M1250.3 563 q 1.4 58 0 116" stroke="#2E1206" stroke-opacity="0.31" stroke-width="1.5" fill="none"/><path d="M1249.5 241 q 0.3 44 0 87" stroke="#2E1206" stroke-opacity="0.33" stroke-width="0.6" fill="none"/><path d="M1241.1 584 q -1.5 26 0 53" stroke="#2E1206" stroke-opacity="0.28" stroke-width="1.6" fill="none"/><path d="M1246.7 713 q -1.0 69 0 138" stroke="#2E1206" stroke-opacity="0.36" stroke-width="1.0" fill="none"/><path d="M1253.4 583 q -1.5 37 0 74" stroke="#2E1206" stroke-opacity="0.39" stroke-width="0.7" fill="none"/><path d="M1257.2 672 q 1.9 62 0 124" stroke="#2E1206" stroke-opacity="0.39" stroke-width="1.4" fill="none"/><path d="M1242.8 618 q 0.1 16 0 32" stroke="#2E1206" stroke-opacity="0.26" stroke-width="1.2" fill="none"/><path d="M1250.1 457 q 1.8 68 0 137" stroke="#2E1206" stroke-opacity="0.18" stroke-width="0.8" fill="none"/><path d="M1234.6 691 q 1.7 51 0 103" stroke="#2E1206" stroke-opacity="0.21" stroke-width="0.6" fill="none"/><path d="M1253.8 710 q -0.4 35 0 69" stroke="#2E1206" stroke-opacity="0.18" stroke-width="1.5" fill="none"/><path d="M1241.3 385 q 1.5 21 0 43" stroke="#2E1206" stroke-opacity="0.18" stroke-width="1.0" fill="none"/><path d="M1250.1 580 q -0.3 76 0 153" stroke="#2E1206" stroke-opacity="0.34" stroke-width="0.7" fill="none"/><path d="M1244.0 77 q -0.4 47 0 94" stroke="#2E1206" stroke-opacity="0.39" stroke-width="0.5" fill="none"/><path d="M1242.9 346 q 1.4 77 0 154" stroke="#2E1206" stroke-opacity="0.17" stroke-width="1.3" fill="none"/><path d="M1247.1 764 q -0.4 38 0 77" stroke="#2E1206" stroke-opacity="0.20" stroke-width="0.6" fill="none"/><path d="M1254.4 355 q 0.6 58 0 116" stroke="#2E1206" stroke-opacity="0.30" stroke-width="0.5" fill="none"/><path d="M1252.9 190 q 0.3 23 0 46" stroke="#2E1206" stroke-opacity="0.17" stroke-width="1.3" fill="none"/><path d="M1239.0 169 q -0.7 72 0 143" stroke="#2E1206" stroke-opacity="0.19" stroke-width="1.5" fill="none"/><path d="M1234.1 670 q -1.5 24 0 49" stroke="#2E1206" stroke-opacity="0.21" stroke-width="0.7" fill="none"/><path d="M1249.9 20 q 1.2 16 0 32" stroke="#2E1206" stroke-opacity="0.21" stroke-width="0.9" fill="none"/><path d="M1238.2 41 q 0.1 63 0 126" stroke="#2E1206" stroke-opacity="0.34" stroke-width="1.0" fill="none"/><path d="M1252.7 401 q 0.0 22 0 44" stroke="#2E1206" stroke-opacity="0.39" stroke-width="0.5" fill="none"/><path d="M1252.8 677 q -0.2 49 0 98" stroke="#2E1206" stroke-opacity="0.39" stroke-width="0.6" fill="none"/><path d="M1245.5 314 q -0.0 60 0 119" stroke="#2E1206" stroke-opacity="0.38" stroke-width="0.6" fill="none"/><path d="M1235.9 475 q -0.9 19 0 39" stroke="#2E1206" stroke-opacity="0.31" stroke-width="1.1" fill="none"/><path d="M1241.8 777 q -0.2 49 0 99" stroke="#2E1206" stroke-opacity="0.30" stroke-width="0.6" fill="none"/><path d="M1250.8 666 q 1.1 57 0 115" stroke="#2E1206" stroke-opacity="0.33" stroke-width="0.7" fill="none"/><rect x="1232" y="0" width="2" height="781" fill="#000000" fill-opacity="0.45"/><rect x="1258" y="0" width="2" height="781" fill="#000000" fill-opacity="0.45"/>
<g transform="translate(0,-32)">
<rect x="51" y="32" width="147" height="52" rx="2" fill="none" stroke="#B7BDD0" stroke-width="2"/><text x="64" y="63" font-family="Arial, Helvetica, sans-serif" font-size="16" font-weight="bold" fill="#F2F2F6" text-anchor="start" letter-spacing="0.5">VCO1</text>
<text x="193" y="49" font-family="Arial, Helvetica, sans-serif" font-size="11.5" font-weight="bold" fill="#F2F2F6" text-anchor="end" letter-spacing="0.5">TRIANGLE</text>
<text x="193" y="61" font-family="Arial, Helvetica, sans-serif" font-size="11.5" font-weight="bold" fill="#F2F2F6" text-anchor="end" letter-spacing="0.5">SAWTOOTH</text>
<text x="193" y="74" font-family="Arial, Helvetica, sans-serif" font-size="11.5" font-weight="bold" fill="#F2F2F6" text-anchor="end" letter-spacing="0.5">PULSE</text>
<line x1="198" y1="45" x2="330" y2="45" stroke="#B7BDD0" stroke-width="2" stroke-linecap="round"/><line x1="198" y1="57" x2="330" y2="57" stroke="#B7BDD0" stroke-width="2" stroke-linecap="round"/>
<line x1="198" y1="70" x2="234" y2="70" stroke="#B7BDD0" stroke-width="2" stroke-linecap="round"/><line x1="286" y1="70" x2="330" y2="70" stroke="#B7BDD0" stroke-width="2" stroke-linecap="round"/>
<rect x="234" y="60" width="52" height="23" rx="2" fill="none" stroke="#B7BDD0" stroke-width="2"/><text x="260" y="76" font-family="Arial, Helvetica, sans-serif" font-size="12.5" font-weight="bold" fill="#F2F2F6" text-anchor="middle" letter-spacing="0.5">PWM</text><line x1="259" y1="83" x2="259" y2="95" stroke="#B7BDD0" stroke-width="2" stroke-linecap="round"/>
<rect x="330" y="32" width="53" height="52" rx="2" fill="none" stroke="#B7BDD0" stroke-width="2"/><text x="356" y="63" font-family="Arial, Helvetica, sans-serif" font-size="14" font-weight="bold" fill="#F2F2F6" text-anchor="middle" letter-spacing="0.5">MIX</text>
<line x1="383" y1="58" x2="405" y2="58" stroke="#B7BDD0" stroke-width="2" stroke-linecap="round"/>
<rect x="405" y="45" width="53" height="26" rx="2" fill="none" stroke="#B7BDD0" stroke-width="2"/><text x="431" y="63" font-family="Arial, Helvetica, sans-serif" font-size="13" font-weight="bold" fill="#F2F2F6" text-anchor="middle" letter-spacing="0.5">VCA</text><line x1="431" y1="71" x2="431" y2="94" stroke="#B7BDD0" stroke-width="2" stroke-linecap="round"/>
<line x1="82" y1="84" x2="82" y2="96" stroke="#B7BDD0" stroke-width="2" stroke-linecap="round"/><line x1="170" y1="84" x2="170" y2="96" stroke="#B7BDD0" stroke-width="2" stroke-linecap="round"/>
<text x="82" y="137" font-family="Arial, Helvetica, sans-serif" font-size="12" font-weight="normal" fill="#C9CACE" text-anchor="middle" letter-spacing="0.5">FREQUENCY</text><text x="170" y="137" font-family="Arial, Helvetica, sans-serif" font-size="12" font-weight="normal" fill="#C9CACE" text-anchor="middle" letter-spacing="0.5">DETUNE</text><text x="259" y="137" font-family="Arial, Helvetica, sans-serif" font-size="12" font-weight="normal" fill="#C9CACE" text-anchor="middle" letter-spacing="0.5">PULSE WIDTH</text><text x="431" y="137" font-family="Arial, Helvetica, sans-serif" font-size="12" font-weight="normal" fill="#C9CACE" text-anchor="middle" letter-spacing="0.5">VOLUME</text>
<line x1="458" y1="58" x2="525" y2="58" stroke="#B7BDD0" stroke-width="2" stroke-linecap="round"/>
<line x1="40" y1="88" x2="82" y2="88" stroke="#B7BDD0" stroke-width="2" stroke-linecap="round"/><line x1="40" y1="88" x2="40" y2="180" stroke="#B7BDD0" stroke-width="2" stroke-linecap="round"/><line x1="40" y1="180" x2="284" y2="180" stroke="#B7BDD0" stroke-width="2" stroke-linecap="round"/>
<line x1="276" y1="220" x2="284" y2="220" stroke="#B7BDD0" stroke-width="2" stroke-linecap="round"/><line x1="284" y1="220" x2="284" y2="180" stroke="#B7BDD0" stroke-width="2" stroke-linecap="round"/>
<line x1="276" y1="230" x2="289" y2="230" stroke="#B7BDD0" stroke-width="2" stroke-linecap="round"/><line x1="289" y1="230" x2="289" y2="180" stroke="#B7BDD0" stroke-width="2" stroke-linecap="round"/>
<line x1="289" y1="180" x2="492" y2="180" stroke="#B7BDD0" stroke-width="2" stroke-linecap="round"/>
<path d="M492 180 A 7 7 0 0 1 506 180" fill="none" stroke="#B7BDD0" stroke-width="2"/>
<line x1="506" y1="180" x2="513" y2="180" stroke="#B7BDD0" stroke-width="2" stroke-linecap="round"/><line x1="513" y1="180" x2="513" y2="82" stroke="#B7BDD0" stroke-width="2" stroke-linecap="round"/><line x1="513" y1="82" x2="541" y2="82" stroke="#B7BDD0" stroke-width="2" stroke-linecap="round"/>
<rect x="51" y="210" width="102" height="36" rx="2" fill="none" stroke="#B7BDD0" stroke-width="2"/><text x="102" y="233" font-family="Arial, Helvetica, sans-serif" font-size="13.5" font-weight="bold" fill="#F2F2F6" text-anchor="middle" letter-spacing="0.5">FM VCA</text>
<rect x="184" y="210" width="90" height="52" rx="2" fill="none" stroke="#B7BDD0" stroke-width="2"/>
<text x="229" y="274" font-family="Arial, Helvetica, sans-serif" font-size="9" font-weight="bold" fill="#C9CACE" text-anchor="middle" letter-spacing="0.3">DESTINATION</text>
<line x1="153" y1="228" x2="184" y2="228" stroke="#B7BDD0" stroke-width="2" stroke-linecap="round"/>
<line x1="106" y1="246" x2="106" y2="258" stroke="#B7BDD0" stroke-width="2" stroke-linecap="round"/><text x="106" y="300" font-family="Arial, Helvetica, sans-serif" font-size="12" font-weight="normal" fill="#C9CACE" text-anchor="middle" letter-spacing="0.5">FM AMPLITUDE</text>
<rect x="329" y="210" width="52" height="52" rx="2" fill="none" stroke="#B7BDD0" stroke-width="2"/><text x="355" y="241" font-family="Arial, Helvetica, sans-serif" font-size="14" font-weight="bold" fill="#F2F2F6" text-anchor="middle" letter-spacing="0.5">MIX</text>
<line x1="381" y1="232" x2="405" y2="232" stroke="#B7BDD0" stroke-width="2" stroke-linecap="round"/>
<rect x="405" y="220" width="53" height="26" rx="2" fill="none" stroke="#B7BDD0" stroke-width="2"/><text x="431" y="238" font-family="Arial, Helvetica, sans-serif" font-size="13" font-weight="bold" fill="#F2F2F6" text-anchor="middle" letter-spacing="0.5">VCA</text><line x1="431" y1="246" x2="431" y2="270" stroke="#B7BDD0" stroke-width="2" stroke-linecap="round"/>
<line x1="458" y1="232" x2="499" y2="232" stroke="#B7BDD0" stroke-width="2" stroke-linecap="round"/><line x1="499" y1="232" x2="499" y2="70" stroke="#B7BDD0" stroke-width="2" stroke-linecap="round"/>
<path d="M499 70 Q499 58 509 58" fill="none" stroke="#B7BDD0" stroke-width="2"/>
<text x="431" y="314" font-family="Arial, Helvetica, sans-serif" font-size="12" font-weight="normal" fill="#C9CACE" text-anchor="middle" letter-spacing="0.5">VOLUME</text>
<rect x="51" y="310" width="147" height="52" rx="2" fill="none" stroke="#B7BDD0" stroke-width="2"/><text x="64" y="341" font-family="Arial, Helvetica, sans-serif" font-size="16" font-weight="bold" fill="#F2F2F6" text-anchor="start" letter-spacing="0.5">VCO2</text>
<text x="193" y="324" font-family="Arial, Helvetica, sans-serif" font-size="11.5" font-weight="bold" fill="#F2F2F6" text-anchor="end" letter-spacing="0.5">TRIANGLE</text>
<text x="193" y="338" font-family="Arial, Helvetica, sans-serif" font-size="11.5" font-weight="bold" fill="#F2F2F6" text-anchor="end" letter-spacing="0.5">SAWTOOTH</text>
<text x="193" y="352" font-family="Arial, Helvetica, sans-serif" font-size="11.5" font-weight="bold" fill="#F2F2F6" text-anchor="end" letter-spacing="0.5">PULSE</text>
<line x1="198" y1="320" x2="297" y2="320" stroke="#B7BDD0" stroke-width="2" stroke-linecap="round"/><line x1="297" y1="320" x2="297" y2="228" stroke="#B7BDD0" stroke-width="2" stroke-linecap="round"/><line x1="297" y1="228" x2="329" y2="228" stroke="#B7BDD0" stroke-width="2" stroke-linecap="round"/>
<line x1="198" y1="334" x2="303" y2="334" stroke="#B7BDD0" stroke-width="2" stroke-linecap="round"/><line x1="303" y1="334" x2="303" y2="237" stroke="#B7BDD0" stroke-width="2" stroke-linecap="round"/><line x1="303" y1="237" x2="329" y2="237" stroke="#B7BDD0" stroke-width="2" stroke-linecap="round"/>
<line x1="198" y1="348" x2="233" y2="348" stroke="#B7BDD0" stroke-width="2" stroke-linecap="round"/><rect x="233" y="340" width="52" height="23" rx="2" fill="none" stroke="#B7BDD0" stroke-width="2"/><text x="259" y="356" font-family="Arial, Helvetica, sans-serif" font-size="12.5" font-weight="bold" fill="#F2F2F6" text-anchor="middle" letter-spacing="0.5">PWM</text><line x1="259" y1="363" x2="259" y2="375" stroke="#B7BDD0" stroke-width="2" stroke-linecap="round"/>
<line x1="285" y1="348" x2="309" y2="348" stroke="#B7BDD0" stroke-width="2" stroke-linecap="round"/><line x1="309" y1="348" x2="309" y2="246" stroke="#B7BDD0" stroke-width="2" stroke-linecap="round"/><line x1="309" y1="246" x2="329" y2="246" stroke="#B7BDD0" stroke-width="2" stroke-linecap="round"/>
<text x="318" y="300" font-family="Arial" font-size="9" font-weight="bold" fill="#C9CACE" transform="rotate(-90 318 300)" letter-spacing="0.3">NOISE</text>
<line x1="317" y1="255" x2="329" y2="255" stroke="#B7BDD0" stroke-width="2" stroke-linecap="round"/><line x1="317" y1="255" x2="317" y2="270" stroke="#B7BDD0" stroke-width="2" stroke-linecap="round"/>
<line x1="82" y1="362" x2="82" y2="374" stroke="#B7BDD0" stroke-width="2" stroke-linecap="round"/><line x1="170" y1="362" x2="170" y2="374" stroke="#B7BDD0" stroke-width="2" stroke-linecap="round"/>
<text x="82" y="418" font-family="Arial, Helvetica, sans-serif" font-size="12" font-weight="normal" fill="#C9CACE" text-anchor="middle" letter-spacing="0.5">FREQUENCY</text><text x="170" y="418" font-family="Arial, Helvetica, sans-serif" font-size="12" font-weight="normal" fill="#C9CACE" text-anchor="middle" letter-spacing="0.5">DETUNE</text><text x="259" y="418" font-family="Arial, Helvetica, sans-serif" font-size="12" font-weight="normal" fill="#C9CACE" text-anchor="middle" letter-spacing="0.5">PULSE WIDTH</text>
<line x1="40" y1="229" x2="40" y2="305" stroke="#B7BDD0" stroke-width="2" stroke-linecap="round"/><line x1="40" y1="229" x2="51" y2="229" stroke="#B7BDD0" stroke-width="2" stroke-linecap="round"/><line x1="40" y1="305" x2="204" y2="305" stroke="#B7BDD0" stroke-width="2" stroke-linecap="round"/>
<line x1="204" y1="305" x2="204" y2="320" stroke="#B7BDD0" stroke-width="2" stroke-linecap="round"/>
<text x="53" y="480" font-family="Arial, Helvetica, sans-serif" font-size="15" font-weight="bold" fill="#F2F2F6" text-anchor="start" letter-spacing="0.5">VCO1/VCO2/FM</text><rect x="53" y="487" width="370" height="4.5" fill="url(#bluebar)"/>
<rect x="81" y="501" width="268" height="36" rx="2" fill="none" stroke="#B7BDD0" stroke-width="2"/><text x="215" y="524" font-family="Arial, Helvetica, sans-serif" font-size="14" font-weight="bold" fill="#F2F2F6" text-anchor="middle" letter-spacing="0.5">LAG</text>
<line x1="349" y1="518" x2="363" y2="518" stroke="#B7BDD0" stroke-width="2" stroke-linecap="round"/><text x="368" y="516" font-family="Arial, Helvetica, sans-serif" font-size="11" font-weight="bold" fill="#F2F2F6" text-anchor="start" letter-spacing="0.5">LAG</text><text x="368" y="528" font-family="Arial, Helvetica, sans-serif" font-size="11" font-weight="bold" fill="#F2F2F6" text-anchor="start" letter-spacing="0.5">OUT</text>
<line x1="52" y1="518" x2="81" y2="518" stroke="#B7BDD0" stroke-width="2" stroke-linecap="round"/><line x1="52" y1="518" x2="52" y2="563" stroke="#B7BDD0" stroke-width="2" stroke-linecap="round"/><text x="62" y="576" font-family="Arial, Helvetica, sans-serif" font-size="9" font-weight="bold" fill="#C9CACE" text-anchor="end" letter-spacing="0.3">LAG IN</text>
<line x1="215" y1="537" x2="215" y2="549" stroke="#B7BDD0" stroke-width="2" stroke-linecap="round"/><text x="215" y="590" font-family="Arial, Helvetica, sans-serif" font-size="12" font-weight="normal" fill="#C9CACE" text-anchor="middle" letter-spacing="0.5">RATE</text>
<text x="53" y="622" font-family="Arial, Helvetica, sans-serif" font-size="15" font-weight="bold" fill="#F2F2F6" text-anchor="start" letter-spacing="0.5">LAG</text><rect x="53" y="629" width="370" height="4.5" fill="url(#bluebar)"/>
<rect x="81" y="679" width="268" height="36" rx="2" fill="none" stroke="#B7BDD0" stroke-width="2"/><text x="215" y="702" font-family="Arial, Helvetica, sans-serif" font-size="13.5" font-weight="bold" fill="#F2F2F6" text-anchor="middle" letter-spacing="0.5">TRACKING GENERATOR</text>
<line x1="349" y1="696" x2="363" y2="696" stroke="#B7BDD0" stroke-width="2" stroke-linecap="round"/><text x="368" y="694" font-family="Arial, Helvetica, sans-serif" font-size="11" font-weight="bold" fill="#F2F2F6" text-anchor="start" letter-spacing="0.5">TRACK</text><text x="368" y="706" font-family="Arial, Helvetica, sans-serif" font-size="11" font-weight="bold" fill="#F2F2F6" text-anchor="start" letter-spacing="0.5">OUT</text>
<line x1="52" y1="696" x2="81" y2="696" stroke="#B7BDD0" stroke-width="2" stroke-linecap="round"/><line x1="52" y1="696" x2="52" y2="741" stroke="#B7BDD0" stroke-width="2" stroke-linecap="round"/><text x="66" y="766" font-family="Arial, Helvetica, sans-serif" font-size="9" font-weight="bold" fill="#C9CACE" text-anchor="end" letter-spacing="0.3">TRACK IN</text>
<line x1="123" y1="715" x2="123" y2="727" stroke="#B7BDD0" stroke-width="2" stroke-linecap="round"/>
<text x="123" y="766" font-family="Arial, Helvetica, sans-serif" font-size="12" font-weight="normal" fill="#C9CACE" text-anchor="middle" letter-spacing="0.5">PT 1</text>
<line x1="166" y1="715" x2="166" y2="727" stroke="#B7BDD0" stroke-width="2" stroke-linecap="round"/>
<text x="166" y="766" font-family="Arial, Helvetica, sans-serif" font-size="12" font-weight="normal" fill="#C9CACE" text-anchor="middle" letter-spacing="0.5">PT 2</text>
<line x1="209" y1="715" x2="209" y2="727" stroke="#B7BDD0" stroke-width="2" stroke-linecap="round"/>
<text x="209" y="766" font-family="Arial, Helvetica, sans-serif" font-size="12" font-weight="normal" fill="#C9CACE" text-anchor="middle" letter-spacing="0.5">PT 3</text>
<line x1="252" y1="715" x2="252" y2="727" stroke="#B7BDD0" stroke-width="2" stroke-linecap="round"/>
<text x="252" y="766" font-family="Arial, Helvetica, sans-serif" font-size="12" font-weight="normal" fill="#C9CACE" text-anchor="middle" letter-spacing="0.5">PT 4</text>
<line x1="295" y1="715" x2="295" y2="727" stroke="#B7BDD0" stroke-width="2" stroke-linecap="round"/>
<text x="295" y="766" font-family="Arial, Helvetica, sans-serif" font-size="12" font-weight="normal" fill="#C9CACE" text-anchor="middle" letter-spacing="0.5">PT 5</text>
<text x="53" y="792" font-family="Arial, Helvetica, sans-serif" font-size="15" font-weight="bold" fill="#F2F2F6" text-anchor="start" letter-spacing="0.5">TRACK X</text><rect x="53" y="799" width="370" height="4.5" fill="url(#bluebar)"/>
<rect x="525" y="45" width="186" height="26" rx="2" fill="none" stroke="#B7BDD0" stroke-width="2"/><text x="618" y="63" font-family="Arial, Helvetica, sans-serif" font-size="13.5" font-weight="bold" fill="#F2F2F6" text-anchor="middle" letter-spacing="0.5">MULTIMODE VCF</text>
<rect x="729" y="45" width="62" height="26" rx="2" fill="none" stroke="#B7BDD0" stroke-width="2"/><text x="760" y="63" font-family="Arial, Helvetica, sans-serif" font-size="13" font-weight="bold" fill="#F2F2F6" text-anchor="middle" letter-spacing="0.5">VCA1</text>
<rect x="804" y="45" width="62" height="26" rx="2" fill="none" stroke="#B7BDD0" stroke-width="2"/><text x="835" y="63" font-family="Arial, Helvetica, sans-serif" font-size="13" font-weight="bold" fill="#F2F2F6" text-anchor="middle" letter-spacing="0.5">VCA</text>
<line x1="711" y1="58" x2="729" y2="58" stroke="#B7BDD0" stroke-width="2" stroke-linecap="round"/><line x1="791" y1="58" x2="804" y2="58" stroke="#B7BDD0" stroke-width="2" stroke-linecap="round"/>
<line x1="866" y1="58" x2="880" y2="58" stroke="#B7BDD0" stroke-width="2" stroke-linecap="round"/><text x="885" y="56" font-family="Arial, Helvetica, sans-serif" font-size="11" font-weight="bold" fill="#F2F2F6" text-anchor="start" letter-spacing="0.5">VOICE</text><text x="885" y="68" font-family="Arial, Helvetica, sans-serif" font-size="11" font-weight="bold" fill="#F2F2F6" text-anchor="start" letter-spacing="0.5">OUT</text>
<line x1="541" y1="71" x2="541" y2="95" stroke="#B7BDD0" stroke-width="2" stroke-linecap="round"/>
<line x1="591" y1="71" x2="591" y2="95" stroke="#B7BDD0" stroke-width="2" stroke-linecap="round"/>
<line x1="669" y1="71" x2="669" y2="95" stroke="#B7BDD0" stroke-width="2" stroke-linecap="round"/>
<line x1="759" y1="71" x2="759" y2="95" stroke="#B7BDD0" stroke-width="2" stroke-linecap="round"/>
<line x1="834" y1="71" x2="834" y2="95" stroke="#B7BDD0" stroke-width="2" stroke-linecap="round"/>
<text x="541" y="137" font-family="Arial, Helvetica, sans-serif" font-size="12" font-weight="normal" fill="#C9CACE" text-anchor="middle" letter-spacing="0.5">FREQ</text><text x="591" y="137" font-family="Arial, Helvetica, sans-serif" font-size="12" font-weight="normal" fill="#C9CACE" text-anchor="middle" letter-spacing="0.5">RES</text><text x="669" y="137" font-family="Arial, Helvetica, sans-serif" font-size="12" font-weight="normal" fill="#C9CACE" text-anchor="middle" letter-spacing="0.5">MODE (15)</text><text x="759" y="137" font-family="Arial, Helvetica, sans-serif" font-size="12" font-weight="normal" fill="#C9CACE" text-anchor="middle" letter-spacing="0.5">VOLUME</text><text x="834" y="137" font-family="Arial, Helvetica, sans-serif" font-size="12" font-weight="normal" fill="#C9CACE" text-anchor="middle" letter-spacing="0.5">VOLUME</text>
<text x="526" y="187" font-family="Arial, Helvetica, sans-serif" font-size="15" font-weight="bold" fill="#F2F2F6" text-anchor="start" letter-spacing="0.5">VCF/VCA</text><rect x="526" y="194" width="370" height="4.5" fill="url(#bluebar)"/>
<rect x="525" y="242" width="267" height="26" rx="2" fill="none" stroke="#B7BDD0" stroke-width="2"/><text x="658" y="260" font-family="Arial, Helvetica, sans-serif" font-size="13.5" font-weight="bold" fill="#F2F2F6" text-anchor="middle" letter-spacing="0.5">ENVELOPE GENERATOR</text>
<rect x="804" y="242" width="63" height="26" rx="2" fill="none" stroke="#B7BDD0" stroke-width="2"/><text x="835" y="260" font-family="Arial, Helvetica, sans-serif" font-size="13" font-weight="bold" fill="#F2F2F6" text-anchor="middle" letter-spacing="0.5">VCA</text>
<line x1="792" y1="255" x2="804" y2="255" stroke="#B7BDD0" stroke-width="2" stroke-linecap="round"/>
<line x1="867" y1="255" x2="881" y2="255" stroke="#B7BDD0" stroke-width="2" stroke-linecap="round"/><text x="886" y="253" font-family="Arial, Helvetica, sans-serif" font-size="11" font-weight="bold" fill="#F2F2F6" text-anchor="start" letter-spacing="0.5">ENV</text><text x="886" y="265" font-family="Arial, Helvetica, sans-serif" font-size="11" font-weight="bold" fill="#F2F2F6" text-anchor="start" letter-spacing="0.5">OUT</text>
<line x1="514" y1="255" x2="525" y2="255" stroke="#B7BDD0" stroke-width="2" stroke-linecap="round"/><line x1="514" y1="255" x2="514" y2="351" stroke="#B7BDD0" stroke-width="2" stroke-linecap="round"/><line x1="514" y1="351" x2="524" y2="351" stroke="#B7BDD0" stroke-width="2" stroke-linecap="round"/><text x="508" y="363" font-family="Arial, Helvetica, sans-serif" font-size="9" font-weight="bold" fill="#C9CACE" text-anchor="end" letter-spacing="0.3">TRIGGER</text><text x="508" y="373" font-family="Arial, Helvetica, sans-serif" font-size="9" font-weight="bold" fill="#C9CACE" text-anchor="end" letter-spacing="0.3">IN</text>
<line x1="541" y1="268" x2="541" y2="280" stroke="#B7BDD0" stroke-width="2" stroke-linecap="round"/>
<line x1="591" y1="268" x2="591" y2="280" stroke="#B7BDD0" stroke-width="2" stroke-linecap="round"/>
<line x1="640" y1="268" x2="640" y2="280" stroke="#B7BDD0" stroke-width="2" stroke-linecap="round"/>
<line x1="690" y1="268" x2="690" y2="280" stroke="#B7BDD0" stroke-width="2" stroke-linecap="round"/>
<line x1="749" y1="268" x2="749" y2="280" stroke="#B7BDD0" stroke-width="2" stroke-linecap="round"/>
<line x1="834" y1="268" x2="834" y2="280" stroke="#B7BDD0" stroke-width="2" stroke-linecap="round"/>
<text x="541" y="320" font-family="Arial, Helvetica, sans-serif" font-size="12" font-weight="normal" fill="#C9CACE" text-anchor="middle" letter-spacing="0.5">DELAY</text><text x="591" y="320" font-family="Arial, Helvetica, sans-serif" font-size="12" font-weight="normal" fill="#C9CACE" text-anchor="middle" letter-spacing="0.5">ATTACK</text><text x="640" y="320" font-family="Arial, Helvetica, sans-serif" font-size="12" font-weight="normal" fill="#C9CACE" text-anchor="middle" letter-spacing="0.5">DECAY</text><text x="690" y="320" font-family="Arial, Helvetica, sans-serif" font-size="12" font-weight="normal" fill="#C9CACE" text-anchor="middle" letter-spacing="0.5">SUSTAIN</text><text x="749" y="320" font-family="Arial, Helvetica, sans-serif" font-size="12" font-weight="normal" fill="#C9CACE" text-anchor="middle" letter-spacing="0.5">RELEASE</text><text x="834" y="320" font-family="Arial, Helvetica, sans-serif" font-size="12" font-weight="normal" fill="#C9CACE" text-anchor="middle" letter-spacing="0.5">VOLUME</text>
<rect x="524" y="329" width="373" height="42" rx="2" fill="none" stroke="#B7BDD0" stroke-width="2"/>
<text x="526" y="409" font-family="Arial, Helvetica, sans-serif" font-size="15" font-weight="bold" fill="#F2F2F6" text-anchor="start" letter-spacing="0.5">ENV X</text><rect x="526" y="416" width="370" height="4.5" fill="url(#bluebar)"/>
<rect x="524" y="467" width="269" height="26" rx="2" fill="none" stroke="#B7BDD0" stroke-width="2"/><text x="658" y="485" font-family="Arial, Helvetica, sans-serif" font-size="14" font-weight="bold" fill="#F2F2F6" text-anchor="middle" letter-spacing="0.5">LFO</text>
<rect x="804" y="467" width="63" height="26" rx="2" fill="none" stroke="#B7BDD0" stroke-width="2"/><text x="835" y="485" font-family="Arial, Helvetica, sans-serif" font-size="13" font-weight="bold" fill="#F2F2F6" text-anchor="middle" letter-spacing="0.5">VCA</text>
<line x1="793" y1="480" x2="804" y2="480" stroke="#B7BDD0" stroke-width="2" stroke-linecap="round"/>
<line x1="867" y1="480" x2="881" y2="480" stroke="#B7BDD0" stroke-width="2" stroke-linecap="round"/><text x="886" y="478" font-family="Arial, Helvetica, sans-serif" font-size="11" font-weight="bold" fill="#F2F2F6" text-anchor="start" letter-spacing="0.5">LFO</text><text x="886" y="490" font-family="Arial, Helvetica, sans-serif" font-size="11" font-weight="bold" fill="#F2F2F6" text-anchor="start" letter-spacing="0.5">OUT</text>
<line x1="545" y1="493" x2="545" y2="505" stroke="#B7BDD0" stroke-width="2" stroke-linecap="round"/>
<line x1="657" y1="493" x2="657" y2="505" stroke="#B7BDD0" stroke-width="2" stroke-linecap="round"/>
<line x1="758" y1="493" x2="758" y2="505" stroke="#B7BDD0" stroke-width="2" stroke-linecap="round"/>
<line x1="834" y1="493" x2="834" y2="505" stroke="#B7BDD0" stroke-width="2" stroke-linecap="round"/>
<text x="545" y="546" font-family="Arial, Helvetica, sans-serif" font-size="12" font-weight="normal" fill="#C9CACE" text-anchor="middle" letter-spacing="0.5">SPEED</text><text x="657" y="546" font-family="Arial, Helvetica, sans-serif" font-size="12" font-weight="normal" fill="#C9CACE" text-anchor="middle" letter-spacing="0.5">WAVESHAPE</text><text x="758" y="546" font-family="Arial, Helvetica, sans-serif" font-size="12" font-weight="normal" fill="#C9CACE" text-anchor="middle" letter-spacing="0.5">RETRIG</text><text x="834" y="546" font-family="Arial, Helvetica, sans-serif" font-size="12" font-weight="normal" fill="#C9CACE" text-anchor="middle" letter-spacing="0.5">AMPLITUDE</text>
<text x="527" y="590" font-family="Arial, Helvetica, sans-serif" font-size="15" font-weight="bold" fill="#F2F2F6" text-anchor="start" letter-spacing="0.5">LFO X</text><rect x="527" y="597" width="370" height="4.5" fill="url(#bluebar)"/>
<rect x="524" y="646" width="266" height="26" rx="2" fill="none" stroke="#B7BDD0" stroke-width="2"/><text x="656" y="664" font-family="Arial, Helvetica, sans-serif" font-size="14" font-weight="bold" fill="#F2F2F6" text-anchor="middle" letter-spacing="0.5">RAMP</text>
<line x1="790" y1="659" x2="804" y2="659" stroke="#B7BDD0" stroke-width="2" stroke-linecap="round"/><text x="809" y="657" font-family="Arial, Helvetica, sans-serif" font-size="11" font-weight="bold" fill="#F2F2F6" text-anchor="start" letter-spacing="0.5">RAMP</text><text x="809" y="669" font-family="Arial, Helvetica, sans-serif" font-size="11" font-weight="bold" fill="#F2F2F6" text-anchor="start" letter-spacing="0.5">OUT</text>
<line x1="514" y1="659" x2="524" y2="659" stroke="#B7BDD0" stroke-width="2" stroke-linecap="round"/><line x1="514" y1="659" x2="514" y2="758" stroke="#B7BDD0" stroke-width="2" stroke-linecap="round"/><line x1="514" y1="758" x2="524" y2="758" stroke="#B7BDD0" stroke-width="2" stroke-linecap="round"/><text x="508" y="767" font-family="Arial, Helvetica, sans-serif" font-size="9" font-weight="bold" fill="#C9CACE" text-anchor="end" letter-spacing="0.3">TRIGGER</text><text x="508" y="777" font-family="Arial, Helvetica, sans-serif" font-size="9" font-weight="bold" fill="#C9CACE" text-anchor="end" letter-spacing="0.3">IN</text>
<line x1="657" y1="672" x2="657" y2="684" stroke="#B7BDD0" stroke-width="2" stroke-linecap="round"/>
<text x="657" y="726" font-family="Arial, Helvetica, sans-serif" font-size="12" font-weight="normal" fill="#C9CACE" text-anchor="middle" letter-spacing="0.5">RATE</text>
<rect x="524" y="734" width="374" height="41" rx="2" fill="none" stroke="#B7BDD0" stroke-width="2"/>
<text x="527" y="792" font-family="Arial, Helvetica, sans-serif" font-size="15" font-weight="bold" fill="#F2F2F6" text-anchor="start" letter-spacing="0.5">RAMP X</text><rect x="527" y="799" width="370" height="4.5" fill="url(#bluebar)"/>
<text x="958" y="792" font-family="Arial, Helvetica, sans-serif" font-size="15" font-weight="bold" fill="#F2F2F6" text-anchor="start" letter-spacing="0.5">MODULATION MATRIX</text><rect x="958" y="799" width="268" height="4.5" fill="url(#bluebar)"/>
</g>
</svg>