<?xml version="1.0" encoding="UTF-8" standalone="no"?>
<svg
   xmlns:dc="http://purl.org/dc/elements/1.1/"
   xmlns:cc="http://creativecommons.org/ns#"
   xmlns:rdf="http://www.w3.org/1999/02/22-rdf-syntax-ns#"
   xmlns:svg="http://www.w3.org/2000/svg"
   xmlns="http://www.w3.org/2000/svg"
   xmlns:sodipodi="http://sodipodi.sourceforge.net/DTD/sodipodi-0.dtd"
   xmlns:inkscape="http://www.inkscape.org/namespaces/inkscape"
   width="479.39444"
   height="479.39444"
   id="svg2997"
   version="1.1"
   inkscape:version="0.48.2 r9819"
   sodipodi:docname="Hazard_X.svg"
   inkscape:export-filename="C:\Users\Linux\Desktop\Hazard_16.png"
   inkscape:export-xdpi="3.0037894"
   inkscape:export-ydpi="3.0037894">
  <sodipodi:namedview
     pagecolor="#ffffff"
     bordercolor="#666666"
     borderopacity="1"
     objecttolerance="10"
     gridtolerance="10"
     guidetolerance="10"
     inkscape:pageopacity="0"
     inkscape:pageshadow="2"
     inkscape:window-width="1920"
     inkscape:window-height="1018"
     id="namedview3003"
     showgrid="false"
     inkscape:zoom="1"
     inkscape:cx="97.25961"
     inkscape:cy="264.71399"
     inkscape:window-x="1671"
     inkscape:window-y="-9"
     inkscape:window-maximized="1"
     inkscape:current-layer="svg2997"
     fit-margin-top="0"
     fit-margin-left="0"
     fit-margin-right="0"
     fit-margin-bottom="0"
     showborder="false"
     inkscape:showpageshadow="false"
     inkscape:snap-global="false" />
  <metadata
     id="metadata3007">
    <rdf:RDF>
      <cc:Work
         rdf:about="">
        <dc:format>image/svg+xml</dc:format>
        <dc:type
           rdf:resource="http://purl.org/dc/dcmitype/StillImage" />
        <dc:title></dc:title>
      </cc:Work>
    </rdf:RDF>
  </metadata>
  <defs
     id="defs3005" />
  <path
     inkscape:connector-curvature="0"
     id="path4123"
     d="M 0,239.69721 0,0 l 239.69721,0 239.69722,0 0,239.69721 0,239.69722 -239.69722,0 -239.69721,0 0,-239.69722 z m 182.95455,137.26596 56.74266,-56.73898 56.74266,56.73898 c 31.20847,31.20644 57.07775,56.73898 57.48728,56.73898 0.40954,0 18.69517,-17.9482 40.63473,-39.88489 L 434.452,353.93237 377.33809,296.81479 320.22417,239.69721 377.33809,182.57964 434.452,125.46206 394.56188,85.577169 C 372.62232,63.640482 354.33669,45.692281 353.92715,45.692281 c -0.40953,0 -26.27881,25.53254 -57.48728,56.738979 l -56.74266,56.73898 -56.92857,-56.92488 -56.92858,-56.924887 -40.259801,40.259796 -40.259786,40.259791 56.924887,56.92858 56.92488,56.92857 -56.92401,56.9277 -56.924003,56.9277 40.069512,40.07477 c 22.038241,22.04113 40.238411,40.07477 40.444831,40.07477 0.20643,0 25.90952,-25.53254 57.11798,-56.73898 l 0,0 z"
     style="fill:#3a6ea5;fill-opacity:1" />
  <path
     inkscape:connector-curvature="0"
     id="path4895"
     d="m 389.8786,-120.55814 -39.51123,-39.51123 57.11304,-57.1167 57.11304,-57.1167 -56.924,-56.9277 -56.924,-56.92769 39.69537,-39.70066 39.69537,-39.70067 56.93215,56.92851 56.93217,56.92852 56.92489,-56.92859 56.92489,-56.92858 39.69985,39.69985 39.69985,39.69985 -56.92488,56.92857 -56.92488,56.92857 56.92399,56.92769 56.924,56.92769 -39.69536,39.70066 -39.69536,39.700661 -56.55764,-56.553971 c -31.1067,-31.10469 -56.89473,-56.55397 -57.30672,-56.55397 -0.41199,0 -26.19651,25.4491 -57.29892,56.55356 -31.10241,31.10446 -56.71961,56.553561 -56.92711,56.553561 -0.20751,0 -18.15733,-17.78005 -39.88851,-39.511231 z"
     style="fill:#ffffff;fill-opacity:1" />
  <path
     inkscape:connector-curvature="0"
     id="path4899"
     d="m 394.07468,313.91786 -7.3943,-7.39431 0.003,-0.17233 0.003,-0.17233 7.56662,7.56664 7.56661,7.56664 -0.17556,0 -0.17556,0 -7.39431,-7.39431 0,0 z"
     style="fill:#000000;fill-opacity:1" />
  <path
     inkscape:connector-curvature="0"
     id="path4901"
     d="m 406.61874,326.46192 -5.14974,-5.14975 0.17556,0 0.17556,0 5.14974,5.14975 5.14973,5.14974 -0.17556,0 -0.17556,0 -5.14973,-5.14974 z"
     style="fill:#000000;fill-opacity:1" />
  <path
     inkscape:connector-curvature="0"
     id="path4903"
     d=""
     style="fill:#000000;fill-opacity:1" />
  <path
     style="fill:#ffffff;fill-opacity:1"
     d="m 85.758881,393.17972 -39.491234,-39.50073 56.992693,-56.99927 56.99269,-56.99927 -56.99428,-57.00086 -56.994278,-57.00086 39.74671,-39.746708 39.746708,-39.74671 56.98052,56.973938 56.98051,56.97394 57.06348,-56.93167 57.06348,-56.931659 39.70443,39.704436 39.70444,39.704433 -56.9943,57.00088 -56.99429,57.00087 57.24968,57.25618 57.24969,57.25617 -20.25296,19.99427 c -11.13913,10.99685 -29.13412,28.7584 -39.98886,39.47011 L 353.7878,433.13305 296.76522,376.16852 239.74264,319.204 182.99786,375.94222 c -31.20962,31.20603 -56.97044,56.73823 -57.24626,56.73823 -0.27581,0 -18.27254,-17.77533 -39.992719,-39.50073 z"
     id="path3003"
     inkscape:connector-curvature="0" />
  <path
     style="fill:#ffffff;fill-opacity:1"
     d="m 85.758881,393.17972 -39.491234,-39.50073 56.992693,-56.99927 56.99269,-56.99927 -56.99428,-57.00086 -56.994278,-57.00086 39.74671,-39.746708 39.746708,-39.74671 57.00086,56.994278 57.00086,56.99428 57.00086,-56.99428 57.00086,-56.994278 39.74671,39.74671 39.74671,39.746708 -56.9943,57.00088 -56.99429,57.00087 57.24947,57.25596 57.24947,57.25597 -21.25274,20.99493 c -11.68901,11.54721 -29.69179,29.3165 -40.00618,39.48731 l -18.75342,18.49237 -56.99658,-56.99 -56.99657,-56.98999 -56.75326,56.74671 c -31.21429,31.21069 -56.97893,56.74671 -57.25475,56.74671 -0.27581,0 -18.27254,-17.77533 -39.992719,-39.50073 z"
     id="path3005"
     inkscape:connector-curvature="0" />
  <path
     style="fill:#ffffff;fill-opacity:1"
     d="m 85.758881,393.17972 -39.491234,-39.50073 56.992693,-56.99927 56.99269,-56.99927 -56.99428,-57.00086 -56.994278,-57.00086 39.74671,-39.746708 39.746708,-39.74671 57.00086,56.994278 57.00086,56.99428 57.00086,-56.99428 57.00086,-56.994278 39.74671,39.74671 39.74671,39.746708 -56.9943,57.00088 -56.99429,57.00087 57.24919,57.25568 57.24918,57.25568 -22.75246,22.49592 c -12.51385,12.37276 -30.5167,30.14198 -40.00633,39.48715 l -17.25388,16.99121 -56.99612,-56.98954 -56.99613,-56.98955 -56.75326,56.74671 c -31.21429,31.21069 -56.97893,56.74671 -57.25475,56.74671 -0.27581,0 -18.27254,-17.77533 -39.992719,-39.50073 z"
     id="path3007"
     inkscape:connector-curvature="0" />
  <path
     style="fill:#ffffff;fill-opacity:1"
     d="m 85.758881,393.17972 -39.491234,-39.50073 56.992693,-56.99927 56.99269,-56.99927 -56.99428,-57.00086 -56.994278,-57.00086 39.74671,-39.746708 39.746708,-39.74671 57.00086,56.994278 57.00086,56.99428 57.00086,-56.99428 57.00086,-56.994278 39.74671,39.74671 39.74671,39.746708 -56.9943,57.00088 -56.99429,57.00087 57.24886,57.25535 57.24886,57.25536 -24.75214,24.49728 c -13.61367,13.47351 -31.6167,31.24254 -40.00674,39.48674 l -15.25461,14.98944 -56.99539,-56.98881 -56.99539,-56.98881 -56.75326,56.74671 c -31.21429,31.21069 -56.97893,56.74671 -57.25475,56.74671 -0.27581,0 -18.27254,-17.77533 -39.992719,-39.50073 z"
     id="path3009"
     inkscape:connector-curvature="0" />
  <path
     style="fill:#ffffff;fill-opacity:1"
     d="m 85.758881,393.17972 -39.491234,-39.50073 56.992693,-56.99927 56.99269,-56.99927 -56.99428,-57.00086 -56.994278,-57.00086 39.74671,-39.746708 39.746708,-39.74671 57.00086,56.994278 57.00086,56.99428 57.00086,-56.99428 57.00086,-56.994278 39.74671,39.74671 39.74671,39.746708 -56.9943,57.00088 -56.99429,57.00087 57.24886,57.25535 57.24886,57.25536 -24.75214,24.49728 c -13.61367,13.47351 -31.6167,31.24254 -40.00674,39.48674 l -15.25461,14.98944 -56.99539,-56.98881 -56.99539,-56.98881 -56.75326,56.74671 c -31.21429,31.21069 -56.97893,56.74671 -57.25475,56.74671 -0.27581,0 -18.27254,-17.77533 -39.992719,-39.50073 z"
     id="path3011"
     inkscape:connector-curvature="0" />
  <path
     style="fill:#ffffff;fill-opacity:1"
     d="m 85.758881,393.17972 -39.491234,-39.50073 56.992693,-56.99927 56.99269,-56.99927 -56.99428,-57.00086 -56.994278,-57.00086 39.74671,-39.746708 39.746708,-39.74671 57.00086,56.994278 57.00086,56.99428 57.00086,-56.99428 57.00086,-56.994278 39.74671,39.74671 39.74671,39.746708 -56.9943,57.00088 -56.99429,57.00087 57.24886,57.25535 57.24886,57.25536 -24.75214,24.49728 c -13.61367,13.47351 -31.6167,31.24254 -40.00674,39.48674 l -15.25461,14.98944 -56.99539,-56.98881 -56.99539,-56.98881 -56.75326,56.74671 c -31.21429,31.21069 -56.97893,56.74671 -57.25475,56.74671 -0.27581,0 -18.27254,-17.77533 -39.992719,-39.50073 z"
     id="path3013"
     inkscape:connector-curvature="0" />
  <path
     style="fill:#ffffff;fill-opacity:1"
     d="m 85.658881,393.17972 -39.491234,-39.50073 56.992693,-56.99927 56.99269,-56.99927 -56.99428,-57.00086 -56.994278,-57.00086 39.74671,-39.746708 39.746708,-39.74671 57.00086,56.994278 57.00086,56.99428 56.99596,-56.98938 56.99596,-56.989379 16.75404,16.490803 c 9.21472,9.069942 27.21761,26.83912 40.00641,39.487066 l 23.25238,22.99626 -57.24912,57.2556 -57.24911,57.25561 57.24841,57.25491 57.24842,57.2549 -28.25168,28.00009 c -15.53842,15.40005 -33.5421,33.16843 -40.00819,39.48529 l -11.75652,11.48519 -56.99348,-56.9869 -56.99348,-56.9869 -56.75326,56.74671 c -31.21429,31.21069 -56.97893,56.74671 -57.25475,56.74671 -0.27582,0 -18.27254,-17.77533 -39.992719,-39.50073 z"
     id="path3783"
     inkscape:connector-curvature="0" />
  <path
     style="fill:#ffffff;fill-opacity:1"
     d="m 85.658881,393.17972 -39.491234,-39.50073 56.992693,-56.99927 56.99269,-56.99927 -56.99428,-57.00086 -56.994278,-57.00086 39.74671,-39.746708 39.746708,-39.74671 57.00086,56.994278 57.00086,56.99428 56.99517,-56.98859 56.99518,-56.988598 14.75482,14.488943 c 8.11516,7.968919 26.11826,25.737884 40.00689,39.486585 l 25.25206,24.99765 -57.2488,57.2553 -57.2488,57.25529 57.24841,57.25491 57.24842,57.2549 -28.25168,28.00009 c -15.53842,15.40005 -33.5421,33.16843 -40.00819,39.48529 l -11.75652,11.48519 -56.99348,-56.9869 -56.99348,-56.9869 -56.75326,56.74671 c -31.21429,31.21069 -56.97893,56.74671 -57.25475,56.74671 -0.27582,0 -18.27254,-17.77533 -39.992719,-39.50073 z"
     id="path3787"
     inkscape:connector-curvature="0" />
  <path
     style="fill:#ffffff;fill-opacity:1"
     d="m 85.658881,393.17972 -39.491234,-39.50073 56.992693,-56.99927 56.99269,-56.99927 -56.99428,-57.00086 -56.994278,-57.00086 39.74671,-39.746708 39.746708,-39.74671 57.00086,56.994278 57.00086,56.99428 56.99517,-56.98859 56.99518,-56.988598 14.75482,14.488943 c 8.11516,7.968919 26.11826,25.737884 40.00689,39.486585 l 25.25206,24.99765 -57.2488,57.2553 -57.2488,57.25529 57.24841,57.25491 57.24842,57.2549 -28.25168,28.00009 c -15.53842,15.40005 -33.5421,33.16843 -40.00819,39.48529 l -11.75652,11.48519 -56.99348,-56.9869 -56.99348,-56.9869 -56.75326,56.74671 c -31.21429,31.21069 -56.97893,56.74671 -57.25475,56.74671 -0.27582,0 -18.27254,-17.77533 -39.992719,-39.50073 z"
     id="path3789"
     inkscape:connector-curvature="0" />
</svg>
